<svg width="98" height="28" viewBox="0 0 98 28" fill="none" xmlns="http://www.w3.org/2000/svg">
<path d="M0.416754 27.0489V26.6685L0.871391 26.5163C1.78066 26.212 2.2353 25.5779 2.2353 24.6141V4.29892C2.2353 3.76631 2.1469 3.37319 1.9701 3.11957C1.79329 2.86595 1.45232 2.67573 0.947164 2.54892L0.378868 2.39674V2.01631L7.04688 0.380441L7.65306 0.722831L7.50151 6.08696V10.8424C8.38553 10.1069 9.33269 9.48551 10.343 8.97827C11.3786 8.44566 12.5151 8.17935 13.7528 8.17935C15.3945 8.17935 16.6953 8.64856 17.6551 9.58696C18.6401 10.5254 19.1326 11.971 19.1326 13.9239V24.6522C19.1326 25.1594 19.2337 25.5652 19.4357 25.8696C19.6378 26.1739 19.9914 26.4022 20.4965 26.5544L20.7996 26.6685V27.0489H11.9342V26.6685L12.3889 26.5544C13.2981 26.25 13.7528 25.6033 13.7528 24.6141V12.6685C13.7528 11.654 13.576 10.9565 13.2224 10.5761C12.894 10.1957 12.3005 10.0054 11.4417 10.0054C10.886 10.0054 10.2798 10.1196 9.62315 10.3478C8.96645 10.5507 8.29713 10.9185 7.61517 11.4511V24.6902C7.61517 25.6794 8.06981 26.3134 8.97908 26.5924L9.28217 26.6685V27.0489H0.416754Z" fill="#6A00BD"/>
<path d="M31.3729 6.20109C30.5142 6.20109 29.7817 5.93479 29.1755 5.40218C28.5946 4.84421 28.3041 4.14674 28.3041 3.30979C28.3041 2.44747 28.5946 1.75 29.1755 1.2174C29.7817 0.684788 30.5142 0.418483 31.3729 0.418483C32.2317 0.418483 32.9515 0.684788 33.5324 1.2174C34.1134 1.75 34.4038 2.44747 34.4038 3.30979C34.4038 4.14674 34.1134 4.84421 33.5324 5.40218C32.9515 5.93479 32.2317 6.20109 31.3729 6.20109ZM26.9023 27.0489V26.6685L27.4327 26.5163C27.9379 26.3641 28.2789 26.1359 28.4557 25.8315C28.6577 25.5272 28.7587 25.1214 28.7587 24.6141V12.7065C28.7587 12.1739 28.6577 11.7808 28.4557 11.5272C28.2789 11.2482 27.9379 11.058 27.4327 10.9565L26.9023 10.8424V10.462L33.8355 8.2174L34.2144 8.59783L34.1007 14V24.6522C34.1007 25.1594 34.1891 25.5652 34.3659 25.8696C34.568 26.1739 34.909 26.4022 35.3889 26.5544L35.7677 26.6685V27.0489H26.9023Z" fill="#6A00BD"/>
<path d="M50.145 27.163L43.4391 10.9946C43.0855 10.1323 42.4793 9.5616 41.6206 9.28261L41.0902 9.13044V8.75H50.9028V9.13044L50.2208 9.28261C49.2358 9.53624 48.9327 10.1957 49.3115 11.2609L53.2896 21.875L57.0025 11.337C57.2045 10.8297 57.255 10.4112 57.154 10.0815C57.053 9.75182 56.7499 9.51087 56.2447 9.3587L55.2976 9.13044V8.75H60.7911V9.13044L59.6924 9.39674C59.2125 9.52356 58.8336 9.71377 58.5558 9.96739C58.3032 10.221 58.0886 10.6015 57.9117 11.1087L52.3424 27.163H50.145Z" fill="#6A00BD"/>
<path d="M74.8055 8.17935C76.4473 8.17935 77.8491 8.52174 79.0109 9.20653C80.1728 9.86595 81.0568 10.779 81.663 11.9457C82.2944 13.087 82.6101 14.3931 82.6101 15.8641C82.6101 16.1431 82.5975 16.4348 82.5722 16.7391C82.547 17.0181 82.4965 17.2717 82.4207 17.5H71.1305C71.1558 20.2391 71.6357 22.2174 72.5702 23.4348C73.53 24.6268 74.9444 25.2228 76.8135 25.2228C78.0764 25.2228 79.0993 25.0199 79.8823 24.6141C80.6653 24.2083 81.3978 23.6123 82.0797 22.8261L82.4586 23.1685C81.6756 24.5634 80.6274 25.654 79.314 26.4402C78.0259 27.2265 76.4725 27.6196 74.654 27.6196C72.8607 27.6196 71.2695 27.2391 69.8803 26.4783C68.4911 25.692 67.405 24.5761 66.6221 23.1304C65.8391 21.6848 65.4476 19.9601 65.4476 17.9565C65.4476 15.8768 65.9022 14.1141 66.8115 12.6685C67.7208 11.1975 68.8826 10.0815 70.2971 9.32066C71.7367 8.55979 73.2396 8.17935 74.8055 8.17935ZM74.6919 8.94022C73.9594 8.94022 73.328 9.16848 72.7975 9.625C72.2924 10.0562 71.8883 10.8424 71.5852 11.9837C71.3073 13.0996 71.1558 14.6848 71.1305 16.7391H77.6091C77.8617 13.9746 77.7607 11.9837 77.306 10.7663C76.8514 9.54892 75.98 8.94022 74.6919 8.94022Z" fill="#6A00BD"/>
<path d="M88.5663 27.0489V26.6685L89.0209 26.5163C89.9302 26.212 90.3848 25.5779 90.3848 24.6141V4.26087C90.3848 3.75363 90.2838 3.37319 90.0817 3.11957C89.8797 2.84059 89.5261 2.63769 89.0209 2.51087L88.5284 2.39674V2.01631L95.4616 0.380441L95.9163 0.722831L95.7647 6.04892V19.0598C95.7647 19.9982 95.7647 20.9366 95.7647 21.875C95.79 22.788 95.8026 23.7011 95.8026 24.6141C95.8026 25.1214 95.9036 25.5399 96.1057 25.8696C96.3077 26.1739 96.6487 26.4022 97.1286 26.5544L97.6211 26.6685V27.0489H88.5663Z" fill="#6A00BD"/>
<path fill-rule="evenodd" clip-rule="evenodd" d="M0.416751 27.4293C0.20751 27.4293 0.0378864 27.259 0.0378864 27.0489V26.6685C0.0378864 26.5047 0.142237 26.3593 0.296943 26.3076L0.75158 26.1554C1.14849 26.0225 1.4159 25.8286 1.58686 25.5902C1.75785 25.3517 1.85643 25.0351 1.85643 24.6141V4.29891C1.85643 3.79427 1.77002 3.49596 1.65972 3.33773C1.56096 3.19607 1.32808 3.03668 0.855272 2.91799L0.84953 2.91655L0.281227 2.76434C0.115387 2.71993 0 2.56911 0 2.39676V2.01631C0 1.84098 0.11933 1.68835 0.288946 1.64674L6.95695 0.010873C7.05031 -0.0120309 7.14885 0.00154804 7.23261 0.0488601L7.8388 0.391252C7.96145 0.46053 8.03576 0.592365 8.03177 0.733617L7.88037 6.09236V10.059C8.60503 9.51558 9.36896 9.04207 10.172 8.63876C11.264 8.07752 12.4597 7.79892 13.7528 7.79892C15.4687 7.79892 16.872 8.29134 17.9176 9.31265C19.0045 10.3493 19.5115 11.9135 19.5115 13.9239V24.6522C19.5115 25.1124 19.6036 25.4365 19.751 25.6585C19.8863 25.8624 20.1478 26.0521 20.6054 26.19L20.6176 26.1936L20.9327 26.3123C21.0805 26.3679 21.1785 26.5099 21.1785 26.6685V27.0489C21.1785 27.259 21.0089 27.4293 20.7996 27.4293H11.9342C11.725 27.4293 11.5554 27.259 11.5554 27.0489V26.6685C11.5554 26.4939 11.6737 26.3417 11.8423 26.2994L12.2824 26.1889C12.67 26.0568 12.9328 25.8627 13.1023 25.6216C13.2743 25.3769 13.3739 25.0499 13.3739 24.6141V12.6685C13.3739 11.6707 13.1944 11.1035 12.9454 10.8357L12.9359 10.8254C12.7171 10.572 12.2654 10.3859 11.4417 10.3859C10.9373 10.3859 10.3735 10.4896 9.74708 10.7073L9.73463 10.7117C9.17654 10.8841 8.59625 11.1898 7.99403 11.6396V24.6902C7.99403 25.1264 8.09376 25.4484 8.26361 25.6853C8.43127 25.9191 8.69234 26.105 9.08078 26.2258L9.37406 26.2994C9.54272 26.3417 9.66103 26.4939 9.66103 26.6685V27.0489C9.66103 27.259 9.49141 27.4293 9.28217 27.4293H0.416751ZM8.97908 26.5924C8.06981 26.3134 7.61517 25.6794 7.61517 24.6902V11.4511C8.29713 10.9185 8.96645 10.5507 9.62315 10.3478C10.2798 10.1196 10.886 10.0054 11.4417 10.0054C12.3005 10.0054 12.894 10.1957 13.2224 10.5761C13.576 10.9565 13.7528 11.654 13.7528 12.6685V24.6141C13.7528 25.6033 13.2981 26.25 12.3889 26.5544L11.9342 26.6685V27.0489H20.7996V26.6685L20.4965 26.5544C19.9914 26.4022 19.6378 26.1739 19.4357 25.8696C19.2337 25.5652 19.1326 25.1594 19.1326 24.6522V13.9239C19.1326 11.971 18.6401 10.5254 17.6551 9.58696C16.6953 8.64856 15.3945 8.17935 13.7528 8.17935C12.5151 8.17935 11.3786 8.44566 10.343 8.97827C9.47558 9.41377 8.6547 9.93341 7.88037 10.5372C7.75282 10.6366 7.62654 10.7384 7.50151 10.8424V6.08696L7.65306 0.722831L7.04688 0.380441L0.378868 2.01631V2.39674L0.947164 2.54892C1.45232 2.67573 1.79329 2.86595 1.9701 3.11957C2.1469 3.37319 2.2353 3.76631 2.2353 4.29892V24.6141C2.2353 25.5779 1.78066 26.212 0.871391 26.5163L0.416754 26.6685V27.0489H9.28217V26.6685L8.97908 26.5924ZM28.9136 5.67709C28.2549 5.04443 27.9252 4.24627 27.9252 3.30979C27.9252 2.35152 28.2528 1.5482 28.92 0.936449L28.926 0.931024C29.606 0.33351 30.429 0.0380464 31.3729 0.0380464C32.3168 0.0380464 33.1305 0.333738 33.7879 0.936449C34.4551 1.5482 34.7827 2.35152 34.7827 3.30979C34.7827 4.24627 34.453 5.04444 33.7943 5.67709L33.788 5.6832C33.1306 6.28591 32.3168 6.58152 31.3729 6.58152C30.429 6.58152 29.6061 6.286 28.926 5.68848L28.9136 5.67709ZM26.9023 27.4293C26.6931 27.4293 26.5234 27.259 26.5234 27.0489V26.6685C26.5234 26.4986 26.6356 26.3493 26.7982 26.3027L27.3239 26.1519L27.3262 26.1512C27.7831 26.0132 28.0196 25.8271 28.1284 25.6398L28.1341 25.63L28.1404 25.6205C28.2878 25.3985 28.3799 25.0743 28.3799 24.6141V12.7065C28.3799 12.2093 28.2832 11.9197 28.1598 11.7648L28.147 11.7488L28.136 11.7314C28.0392 11.5787 27.8182 11.4219 27.3584 11.3296L27.3533 11.3286L26.8229 11.2144C26.6482 11.1768 26.5234 11.0218 26.5234 10.8424V10.462C26.5234 10.2968 26.6295 10.1505 26.7861 10.0999L33.7193 7.85531C33.8546 7.81151 34.0029 7.84745 34.1034 7.94839L34.4823 8.32882C34.5553 8.40214 34.5953 8.5022 34.5932 8.60586L34.4796 14.004V24.6522C34.4796 25.1131 34.5595 25.442 34.6874 25.6678C34.8273 25.8728 35.0797 26.057 35.5005 26.1908L35.8766 26.3041C36.0368 26.3524 36.1466 26.5005 36.1466 26.6685V27.0489C36.1466 27.259 35.977 27.4293 35.7677 27.4293H26.9023ZM34.3659 25.8696C34.1891 25.5652 34.1007 25.1594 34.1007 24.6522V14L34.2144 8.59783L33.8355 8.2174L26.9023 10.462V10.8424L27.4327 10.9565C27.9379 11.058 28.2789 11.2482 28.4557 11.5272C28.6577 11.7808 28.7587 12.1739 28.7587 12.7065V24.6141C28.7587 25.1214 28.6577 25.5272 28.4557 25.8315C28.2789 26.1359 27.9379 26.3641 27.4327 26.5163L26.9023 26.6685V27.0489H35.7677V26.6685L35.3889 26.5544C34.909 26.4022 34.568 26.1739 34.3659 25.8696ZM50.145 27.5435C49.9921 27.5435 49.8541 27.4511 49.7953 27.3093L43.0894 11.1408L43.0888 11.1394C42.777 10.3791 42.2562 9.89069 41.5101 9.64656L40.9861 9.49623C40.8234 9.44957 40.7113 9.30029 40.7113 9.13044V8.75C40.7113 8.53989 40.8809 8.36957 41.0902 8.36957H50.9028C51.112 8.36957 51.2816 8.53989 51.2816 8.75V9.13044C51.2816 9.30875 51.1583 9.46313 50.9849 9.50181L50.3092 9.6526C49.884 9.76318 49.6849 9.93916 49.5987 10.1268C49.507 10.3264 49.4943 10.6421 49.6673 11.1299L49.6683 11.1329L53.2786 20.7656L56.6504 11.1956C56.8379 10.7248 56.8564 10.4037 56.7919 10.1934C56.7453 10.0412 56.5901 9.86186 56.1457 9.72606L55.2092 9.50037C55.0388 9.45932 54.9187 9.30635 54.9187 9.13044V8.75C54.9187 8.53989 55.0883 8.36957 55.2976 8.36957H60.7911C61.0003 8.36957 61.17 8.53989 61.17 8.75V9.13044C61.17 9.30616 61.0501 9.45902 60.88 9.50025L59.7851 9.76563C59.3523 9.88046 59.0371 10.0447 58.8174 10.2428C58.6223 10.4414 58.4341 10.7616 58.2693 11.2344L52.7002 27.2882C52.6472 27.4411 52.5036 27.5435 52.3424 27.5435H50.145ZM57.9117 11.1087C58.0886 10.6015 58.3032 10.221 58.5558 9.96739C58.8336 9.71377 59.2125 9.52356 59.6924 9.39674L60.7911 9.13044V8.75H55.2976V9.13044L56.2447 9.3587C56.7499 9.51087 57.053 9.75182 57.154 10.0815C57.255 10.4112 57.2045 10.8297 57.0025 11.337L53.2896 21.875L49.3115 11.2609C48.9327 10.1957 49.2358 9.53624 50.2208 9.28261L50.9028 9.13044V8.75H41.0902V9.13044L41.6206 9.28261C42.4793 9.5616 43.0855 10.1323 43.4391 10.9946L50.145 27.163H52.3424L57.9117 11.1087ZM82.4586 23.1685C81.6756 24.5634 80.6274 25.654 79.314 26.4402C78.0259 27.2265 76.4725 27.6196 74.654 27.6196C72.8607 27.6196 71.2695 27.2391 69.8803 26.4783C68.4911 25.692 67.405 24.5761 66.6221 23.1304C65.8391 21.6848 65.4476 19.9601 65.4476 17.9565C65.4476 15.8768 65.9022 14.1141 66.8115 12.6685C67.7208 11.1975 68.8826 10.0815 70.2971 9.32066C71.7367 8.55979 73.2396 8.17935 74.8055 8.17935C76.4473 8.17935 77.8491 8.52174 79.0109 9.20653C80.1728 9.86595 81.0568 10.779 81.663 11.9457C82.2944 13.087 82.6101 14.3931 82.6101 15.8641C82.6101 16.1431 82.5975 16.4348 82.5722 16.7391C82.547 17.0181 82.4965 17.2717 82.4207 17.5H71.1305C71.1317 17.6285 71.1339 17.7553 71.1371 17.8804C71.2018 20.423 71.6795 22.2745 72.5702 23.4348C73.53 24.6268 74.9444 25.2228 76.8135 25.2228C78.0764 25.2228 79.0993 25.0199 79.8823 24.6141C80.5847 24.2501 81.2465 23.7329 81.8676 23.0627C81.9389 22.9859 82.0096 22.907 82.0797 22.8261L82.4586 23.1685ZM72.8676 23.199C73.7394 24.2795 75.0325 24.8424 76.8135 24.8424C78.0404 24.8424 78.9975 24.6446 79.7085 24.2761C80.4421 23.8959 81.138 23.3326 81.794 22.5762C81.933 22.416 82.1758 22.4011 82.3332 22.5433L82.712 22.8857C82.8439 23.0049 82.8757 23.2001 82.7886 23.3553C81.9749 24.8049 80.8813 25.9446 79.5094 26.7662C78.151 27.5949 76.5269 28 74.654 28C72.8059 28 71.1508 27.6075 69.6989 26.8122L69.6942 26.8097C68.2414 25.9874 67.1052 24.8187 66.2892 23.3122C65.4701 21.7999 65.0687 20.0099 65.0687 17.9565C65.0687 15.821 65.5359 13.9846 66.4905 12.4664C67.432 10.9437 68.6412 9.77979 70.1181 8.98531L70.1206 8.98399C71.6125 8.19554 73.1756 7.79892 74.8055 7.79892C76.4988 7.79892 77.9692 8.15212 79.2002 8.87694C80.4217 9.57089 81.3565 10.5353 81.9966 11.7654C82.6615 12.969 82.989 14.3387 82.989 15.8641C82.989 16.1546 82.9758 16.4568 82.9498 16.7707L82.9496 16.7736C82.9221 17.0771 82.8665 17.3601 82.7801 17.6203C82.7285 17.7757 82.5838 17.8804 82.4207 17.8804H71.5161C71.581 20.3851 72.0524 22.1346 72.8676 23.199ZM73.0441 9.91385L73.0429 9.91487C72.627 10.2698 72.2487 10.9631 71.9521 12.0786C71.7023 13.0833 71.5542 14.5056 71.5157 16.3587H77.2619C77.4739 13.7857 77.3557 11.9827 76.9513 10.8999C76.745 10.3474 76.455 9.9604 76.0952 9.70904C75.7355 9.45779 75.2754 9.32066 74.6919 9.32066C74.0451 9.32066 73.5023 9.51948 73.0441 9.91385ZM77.6091 16.7391H71.1305C71.1321 16.6105 71.1342 16.4837 71.1368 16.3587C71.1753 14.4881 71.3247 13.0298 71.5852 11.9837C71.8883 10.8424 72.2924 10.0562 72.7975 9.625C73.328 9.16848 73.9594 8.94022 74.6919 8.94022C75.98 8.94022 76.8514 9.54892 77.306 10.7663C77.7607 11.9837 77.8617 13.9746 77.6091 16.7391ZM88.5663 27.4293C88.357 27.4293 88.1874 27.259 88.1874 27.0489V26.6685C88.1874 26.5047 88.2918 26.3593 88.4465 26.3076L88.9011 26.1554C89.298 26.0225 89.5654 25.8286 89.7364 25.5902C89.9074 25.3517 90.006 25.0351 90.006 24.6141V4.26087C90.006 3.79427 89.9114 3.51472 89.7859 3.35722L89.775 3.34357C89.6466 3.16631 89.3918 2.99661 88.9323 2.88076L88.929 2.87995L88.4432 2.76742C88.2713 2.7276 88.1495 2.57388 88.1495 2.39672V2.01631C88.1495 1.83972 88.2705 1.68635 88.4417 1.64596L95.3749 0.0100893C95.4842 -0.0156831 95.5992 0.00848807 95.6889 0.0760901L96.1436 0.418482C96.242 0.492627 96.2985 0.61017 96.295 0.733694L96.1436 6.05436V21.8695C96.1688 22.7843 96.1814 23.6993 96.1814 24.6141C96.1814 25.0687 96.2713 25.4108 96.4246 25.6641C96.5627 25.8686 96.8124 26.0528 97.2288 26.1871L97.7063 26.2978C97.8782 26.3376 98 26.4913 98 26.6685V27.0489C98 27.259 97.8304 27.4293 97.6211 27.4293H88.5663ZM97.1286 26.5544C96.6487 26.4022 96.3077 26.1739 96.1057 25.8696C95.9036 25.5399 95.8026 25.1214 95.8026 24.6141C95.8026 23.7011 95.79 22.788 95.7647 21.875V6.04892L95.9163 0.722831L95.4616 0.380441L88.5284 2.01631V2.39674L89.0209 2.51087C89.5261 2.63769 89.8797 2.84059 90.0817 3.11957C90.2838 3.37319 90.3848 3.75363 90.3848 4.26087V24.6141C90.3848 25.5779 89.9302 26.212 89.0209 26.5163L88.5663 26.6685V27.0489H97.6211V26.6685L97.1286 26.5544ZM29.1755 5.40218C29.7817 5.93479 30.5142 6.20109 31.3729 6.20109C32.2317 6.20109 32.9515 5.93479 33.5324 5.40218C34.1134 4.84421 34.4038 4.14674 34.4038 3.30979C34.4038 2.44747 34.1134 1.75 33.5324 1.2174C32.9515 0.684788 32.2317 0.418483 31.3729 0.418483C30.5142 0.418483 29.7817 0.684788 29.1755 1.2174C28.5946 1.75 28.3041 2.44747 28.3041 3.30979C28.3041 4.14674 28.5946 4.84421 29.1755 5.40218Z" fill="#6A00BD"/>
</svg>
