<svg width="118" height="24" viewBox="0 0 118 24" fill="none" xmlns="http://www.w3.org/2000/svg">
<path d="M34.3572 23.1848V22.8587L34.7469 22.7283C35.5263 22.4674 35.916 21.9239 35.916 21.0978V3.68479C35.916 3.22827 35.8402 2.89131 35.6887 2.67392C35.5371 2.45653 35.2448 2.29348 34.8119 2.18479L34.3247 2.05435V1.72826L40.0402 0.326092L40.5598 0.61957L40.4299 5.2174V9.29348C41.1876 8.66305 41.9994 8.13044 42.8654 7.69566C43.753 7.23914 44.7273 7.01087 45.7881 7.01087C47.1953 7.01087 48.3102 7.41305 49.1329 8.2174C49.9772 9.02174 50.3994 10.2609 50.3994 11.9348V21.1304C50.3994 21.5652 50.486 21.913 50.6592 22.1739C50.8324 22.4348 51.1355 22.6304 51.5685 22.7609L51.8283 22.8587V23.1848H44.2293V22.8587L44.619 22.7609C45.3984 22.5 45.7881 21.9457 45.7881 21.0978V10.8587C45.7881 9.98914 45.6365 9.39131 45.3335 9.06522C45.052 8.73913 44.5432 8.57609 43.8072 8.57609C43.3309 8.57609 42.8113 8.67392 42.2484 8.86957C41.6855 9.04348 41.1118 9.3587 40.5273 9.81522V21.163C40.5273 22.0109 40.917 22.5543 41.6964 22.7935L41.9561 22.8587V23.1848H34.3572Z" fill="black"/>
<path d="M60.8911 5.31522C60.155 5.31522 59.5272 5.08696 59.0076 4.63044C58.5096 4.15218 58.2607 3.55435 58.2607 2.83696C58.2607 2.09783 58.5096 1.5 59.0076 1.04348C59.5272 0.586961 60.155 0.358699 60.8911 0.358699C61.6271 0.358699 62.2442 0.586961 62.7421 1.04348C63.24 1.5 63.489 2.09783 63.489 2.83696C63.489 3.55435 63.24 4.15218 62.7421 4.63044C62.2442 5.08696 61.6271 5.31522 60.8911 5.31522ZM57.0591 23.1848V22.8587L57.5138 22.7283C57.9467 22.5978 58.239 22.4022 58.3906 22.1413C58.5638 21.8804 58.6504 21.5326 58.6504 21.0978V10.8913C58.6504 10.4348 58.5638 10.0978 58.3906 9.88044C58.239 9.64131 57.9467 9.47826 57.5138 9.39131L57.0591 9.29348V8.9674L63.0019 7.04348L63.3266 7.36957L63.2292 12V21.1304C63.2292 21.5652 63.305 21.913 63.4565 22.1739C63.6297 22.4348 63.922 22.6304 64.3333 22.7609L64.6581 22.8587V23.1848H57.0591Z" fill="black"/>
<path d="M76.9815 23.2826L71.2335 9.42392C70.9305 8.68479 70.4109 8.19566 69.6748 7.95653L69.2202 7.82609V7.5H77.6309V7.82609L77.0464 7.95653C76.2021 8.17392 75.9423 8.73913 76.267 9.65218L79.6768 18.75L82.8593 9.71739C83.0325 9.28261 83.0758 8.92392 82.9892 8.64131C82.9026 8.3587 82.6428 8.15218 82.2098 8.02174L81.3979 7.82609V7.5H86.1067V7.82609L85.1649 8.05435C84.7536 8.16305 84.4288 8.32609 84.1907 8.54348C83.9742 8.76087 83.7902 9.08696 83.6386 9.52174L78.865 23.2826H76.9815Z" fill="black"/>
<path d="M98.119 7.01087C99.5262 7.01087 100.728 7.30435 101.724 7.89131C102.72 8.45653 103.477 9.23914 103.997 10.2391C104.538 11.2174 104.809 12.337 104.809 13.5978C104.809 13.837 104.798 14.087 104.776 14.3478C104.755 14.587 104.711 14.8044 104.646 15H94.969C94.9907 17.3478 95.402 19.0435 96.2031 20.087C97.0257 21.1087 98.2381 21.6196 99.8401 21.6196C100.923 21.6196 101.799 21.4457 102.471 21.0978C103.142 20.75 103.77 20.2391 104.354 19.5652L104.679 19.8587C104.008 21.0544 103.109 21.9891 101.983 22.663C100.879 23.337 99.5479 23.6739 97.9891 23.6739C96.452 23.6739 95.0881 23.3478 93.8974 22.6957C92.7067 22.0217 91.7758 21.0652 91.1046 19.8261C90.4335 18.587 90.0979 17.1087 90.0979 15.3913C90.0979 13.6087 90.4876 12.0978 91.267 10.8587C92.0464 9.59783 93.0422 8.64131 94.2546 7.98913C95.4886 7.33696 96.7768 7.01087 98.119 7.01087ZM98.0216 7.66305C97.3938 7.66305 96.8525 7.8587 96.3979 8.25C95.9649 8.61957 95.6185 9.29348 95.3587 10.2717C95.1206 11.2283 94.9907 12.587 94.969 14.3478H100.522C100.739 11.9783 100.652 10.2717 100.262 9.22827C99.8726 8.18479 99.1257 7.66305 98.0216 7.66305Z" fill="black"/>
<path d="M109.914 23.1848V22.8587L110.304 22.7283C111.083 22.4674 111.473 21.9239 111.473 21.0978V3.65218C111.473 3.2174 111.386 2.89131 111.213 2.67392C111.04 2.43479 110.737 2.26087 110.304 2.15218L109.881 2.05435V1.72826L115.824 0.326092L116.214 0.61957L116.084 5.18479V16.337C116.084 17.1413 116.084 17.9457 116.084 18.75C116.106 19.5326 116.117 20.3152 116.117 21.0978C116.117 21.5326 116.203 21.8913 116.376 22.1739C116.549 22.4348 116.842 22.6304 117.253 22.7609L117.675 22.8587V23.1848H109.914Z" fill="black"/>
<path fill-rule="evenodd" clip-rule="evenodd" d="M34.3572 23.5109C34.1779 23.5109 34.0325 23.3649 34.0325 23.1848V22.8587C34.0325 22.7183 34.1219 22.5937 34.2545 22.5493L34.6442 22.4189C34.9844 22.305 35.2136 22.1388 35.3602 21.9345C35.5067 21.7301 35.5912 21.4587 35.5912 21.0978V3.68478C35.5912 3.25223 35.5172 2.99654 35.4226 2.86091C35.338 2.73948 35.1384 2.60287 34.7331 2.50113L34.7282 2.4999L34.2411 2.36944C34.0989 2.33137 34 2.20209 34 2.05437V1.72826C34 1.57798 34.1023 1.44716 34.2477 1.41149L39.9631 0.00931975C40.0431 -0.0103122 40.1276 0.0013269 40.1994 0.0418801L40.719 0.335359C40.8241 0.39474 40.8878 0.507742 40.8844 0.628815L40.7546 5.22202V8.622C41.3757 8.15621 42.0305 7.75035 42.7189 7.40466C43.6548 6.92359 44.6797 6.68478 45.7881 6.68478C47.2589 6.68478 48.4617 7.10686 49.3579 7.98227C50.2896 8.8708 50.7241 10.2116 50.7241 11.9348V21.1304C50.7241 21.5249 50.8031 21.8028 50.9294 21.993C51.0454 22.1678 51.2696 22.3304 51.6618 22.4485L51.6723 22.4517L51.9423 22.5534C52.069 22.6011 52.153 22.7228 52.153 22.8587V23.1848C52.153 23.3649 52.0076 23.5109 51.8283 23.5109H44.2293C44.05 23.5109 43.9046 23.3649 43.9046 23.1848V22.8587C43.9046 22.7091 44.006 22.5786 44.1506 22.5423L44.5278 22.4477C44.86 22.3344 45.0853 22.168 45.2305 21.9614C45.378 21.7516 45.4633 21.4713 45.4633 21.0978V10.8587C45.4633 10.0035 45.3094 9.51731 45.096 9.28771L45.0879 9.27893C44.9004 9.06171 44.5132 8.90217 43.8072 8.90217C43.3748 8.90217 42.8916 8.99109 42.3546 9.17771L42.344 9.18142C41.8656 9.32922 41.3682 9.59128 40.852 9.97684V21.163C40.852 21.5369 40.9375 21.813 41.0831 22.016C41.2268 22.2164 41.4506 22.3757 41.7835 22.4792L42.0349 22.5423C42.1795 22.5786 42.2809 22.7091 42.2809 22.8587V23.1848C42.2809 23.3649 42.1355 23.5109 41.9561 23.5109H34.3572ZM41.6964 22.7935C40.917 22.5543 40.5273 22.0109 40.5273 21.163V9.81522C41.1118 9.3587 41.6855 9.04348 42.2484 8.86957C42.8113 8.67392 43.3309 8.57609 43.8072 8.57609C44.5432 8.57609 45.052 8.73913 45.3335 9.06522C45.6365 9.39131 45.7881 9.98914 45.7881 10.8587V21.0978C45.7881 21.9457 45.3984 22.5 44.619 22.7609L44.2293 22.8587V23.1848H51.8283V22.8587L51.5685 22.7609C51.1355 22.6304 50.8324 22.4348 50.6592 22.1739C50.486 21.913 50.3994 21.5652 50.3994 21.1304V11.9348C50.3994 10.2609 49.9772 9.02174 49.1329 8.2174C48.3102 7.41305 47.1953 7.01087 45.7881 7.01087C44.7273 7.01087 43.753 7.23914 42.8654 7.69566C42.1219 8.06895 41.4183 8.51435 40.7546 9.03187C40.6453 9.11712 40.537 9.20432 40.4299 9.29348V5.2174L40.5598 0.61957L40.0402 0.326092L34.3247 1.72826V2.05435L34.8119 2.18479C35.2448 2.29348 35.5371 2.45653 35.6887 2.67392C35.8402 2.89131 35.916 3.22827 35.916 3.68479V21.0978C35.916 21.9239 35.5263 22.4674 34.7469 22.7283L34.3572 22.8587V23.1848H41.9561V22.8587L41.6964 22.7935ZM58.7831 4.86608C58.2185 4.3238 57.9359 3.63966 57.9359 2.83696C57.9359 2.01559 58.2167 1.32703 58.7886 0.802671L58.7937 0.798021C59.3766 0.285866 60.082 0.0326112 60.8911 0.0326112C61.7001 0.0326112 62.3976 0.286061 62.961 0.802671C63.533 1.32703 63.8137 2.01559 63.8137 2.83696C63.8137 3.63966 63.5311 4.3238 62.9666 4.86608L62.9611 4.87131C62.3976 5.38792 61.7001 5.64131 60.8911 5.64131C60.082 5.64131 59.3766 5.388 58.7937 4.87584L58.7831 4.86608ZM57.0591 23.5109C56.8798 23.5109 56.7344 23.3649 56.7344 23.1848V22.8587C56.7344 22.7131 56.8305 22.5852 56.9699 22.5452L57.4204 22.4159L57.4225 22.4153C57.8141 22.297 58.0168 22.1375 58.1101 21.977L58.115 21.9686L58.1204 21.9604C58.2467 21.7701 58.3256 21.4923 58.3256 21.0978V10.8913C58.3256 10.4651 58.2428 10.2169 58.137 10.0841L58.126 10.0704L58.1166 10.0555C58.0336 9.92456 57.8442 9.7902 57.4501 9.71106L57.4457 9.71019L56.9911 9.61234C56.8413 9.58012 56.7344 9.44725 56.7344 9.29349V8.96739C56.7344 8.82585 56.8253 8.70047 56.9595 8.65704L62.9022 6.73312C63.0182 6.69558 63.1453 6.72638 63.2315 6.8129L63.5562 7.13899C63.6188 7.20183 63.6532 7.2876 63.6513 7.37646L63.5539 12.0035V21.1304C63.5539 21.5255 63.6224 21.8074 63.7321 22.001C63.852 22.1767 64.0683 22.3345 64.429 22.4492L64.7514 22.5464C64.8887 22.5877 64.9828 22.7147 64.9828 22.8587V23.1848C64.9828 23.3649 64.8374 23.5109 64.6581 23.5109H57.0591ZM63.4565 22.1739C63.305 21.913 63.2292 21.5652 63.2292 21.1304V12L63.3266 7.36957L63.0019 7.04348L57.0591 8.9674V9.29348L57.5138 9.39131C57.9467 9.47826 58.239 9.64131 58.3906 9.88044C58.5638 10.0978 58.6504 10.4348 58.6504 10.8913V21.0978C58.6504 21.5326 58.5638 21.8804 58.3906 22.1413C58.239 22.4022 57.9467 22.5978 57.5138 22.7283L57.0591 22.8587V23.1848H64.6581V22.8587L64.3333 22.7609C63.922 22.6304 63.6297 22.4348 63.4565 22.1739ZM76.9815 23.6087C76.8503 23.6087 76.7321 23.5295 76.6817 23.408L70.9338 9.54928L70.9333 9.54807C70.666 8.89633 70.2196 8.47773 69.58 8.26848L69.1309 8.13963C68.9915 8.09963 68.8954 7.97168 68.8954 7.82609V7.5C68.8954 7.31991 69.0408 7.17391 69.2201 7.17391H77.6309C77.8103 7.17391 77.9557 7.31991 77.9557 7.5V7.82609C77.9557 7.97893 77.85 8.11126 77.7014 8.14441L77.1222 8.27366C76.7577 8.36844 76.5871 8.51928 76.5132 8.68013C76.4345 8.85119 76.4236 9.12178 76.5719 9.53993L76.5728 9.5425L79.6674 17.7991L82.5575 9.59619C82.7182 9.19271 82.734 8.91749 82.6788 8.7372C82.6388 8.60675 82.5058 8.45302 82.1249 8.33662L81.3221 8.14317C81.1761 8.10799 81.0732 7.97687 81.0732 7.82609V7.5C81.0732 7.31991 81.2186 7.17391 81.3979 7.17391H86.1067C86.286 7.17391 86.4314 7.31991 86.4314 7.5V7.82609C86.4314 7.97671 86.3287 8.10773 86.1829 8.14307L85.2444 8.37054C84.8734 8.46896 84.6032 8.60976 84.4149 8.7795C84.2477 8.94978 84.0864 9.22421 83.9451 9.62946L79.1716 23.3899C79.1262 23.5209 79.0031 23.6087 78.8649 23.6087H76.9815ZM83.6386 9.52174C83.7902 9.08696 83.9742 8.76087 84.1907 8.54348C84.4288 8.32609 84.7536 8.16305 85.1649 8.05435L86.1067 7.82609V7.5H81.3979V7.82609L82.2098 8.02174C82.6428 8.15218 82.9026 8.3587 82.9892 8.64131C83.0758 8.92392 83.0325 9.28261 82.8593 9.71739L79.6768 18.75L76.267 9.65218C75.9423 8.73913 76.2021 8.17392 77.0464 7.95653L77.6309 7.82609V7.5H69.2202V7.82609L69.6748 7.95653C70.4109 8.19566 70.9305 8.68479 71.2335 9.42392L76.9815 23.2826H78.865L83.6386 9.52174ZM104.679 19.8587C104.008 21.0544 103.109 21.9891 101.983 22.663C100.879 23.337 99.5479 23.6739 97.9891 23.6739C96.452 23.6739 95.0881 23.3478 93.8974 22.6957C92.7067 22.0217 91.7758 21.0652 91.1046 19.8261C90.4335 18.587 90.0979 17.1087 90.0979 15.3913C90.0979 13.6087 90.4876 12.0978 91.267 10.8587C92.0464 9.59783 93.0422 8.64131 94.2546 7.98913C95.4886 7.33696 96.7768 7.01087 98.119 7.01087C99.5262 7.01087 100.728 7.30435 101.724 7.89131C102.72 8.45653 103.477 9.23914 103.997 10.2391C104.538 11.2174 104.809 12.337 104.809 13.5978C104.809 13.837 104.798 14.087 104.776 14.3478C104.755 14.587 104.711 14.8044 104.646 15H94.969C94.9701 15.1101 94.9719 15.2188 94.9747 15.3261C95.0301 17.5055 95.4396 19.0924 96.2031 20.087C97.0257 21.1087 98.2381 21.6196 99.8401 21.6196C100.923 21.6196 101.799 21.4457 102.471 21.0978C103.073 20.7858 103.64 20.3425 104.172 19.7681C104.233 19.7022 104.294 19.6346 104.354 19.5652L104.679 19.8587ZM96.458 19.8849C97.2052 20.811 98.3135 21.2935 99.8401 21.2935C100.892 21.2935 101.712 21.1239 102.322 20.8081C102.95 20.4822 103.547 19.9993 104.109 19.3511C104.228 19.2137 104.436 19.201 104.571 19.3228L104.896 19.6163C105.009 19.7185 105.036 19.8858 104.962 20.0188C104.264 21.2614 103.327 22.2382 102.151 22.9424C100.987 23.6527 99.5945 24 97.9891 24C96.405 24 94.9864 23.6635 93.7419 22.9819L93.7379 22.9798C92.4926 22.2749 91.5187 21.2732 90.8193 19.9819C90.1173 18.6856 89.7732 17.1514 89.7732 15.3913C89.7732 13.5609 90.1736 11.9868 90.9919 10.6854C91.7989 9.38033 92.8353 8.38268 94.1013 7.70169L94.1034 7.70056C95.3821 7.02474 96.722 6.68478 98.119 6.68478C99.5704 6.68478 100.831 6.98753 101.886 7.60881C102.933 8.20362 103.734 9.03027 104.283 10.0846C104.853 11.1163 105.133 12.2903 105.133 13.5978C105.133 13.8468 105.122 14.1059 105.1 14.3749L105.1 14.3773C105.076 14.6375 105.028 14.8801 104.954 15.1031C104.91 15.2363 104.786 15.3261 104.646 15.3261H95.2995C95.3551 17.473 95.7592 18.9725 96.458 19.8849ZM96.6092 8.49759L96.6082 8.49846C96.2517 8.80272 95.9274 9.39695 95.6732 10.3531C95.4591 11.2143 95.3322 12.4334 95.2992 14.0217H100.224C100.406 11.8163 100.305 10.2709 99.9582 9.34276C99.7814 8.86918 99.5329 8.53749 99.2244 8.32204C98.9161 8.10668 98.5217 7.98913 98.0216 7.98913C97.4672 7.98913 97.002 8.15955 96.6092 8.49759ZM100.522 14.3478H94.969C94.9704 14.2376 94.9722 14.1289 94.9744 14.0217C95.0074 12.4184 95.1355 11.1684 95.3587 10.2717C95.6185 9.29348 95.9649 8.61957 96.3979 8.25C96.8525 7.8587 97.3938 7.66305 98.0216 7.66305C99.1257 7.66305 99.8726 8.18479 100.262 9.22827C100.652 10.2717 100.739 11.9783 100.522 14.3478ZM109.914 23.5109C109.735 23.5109 109.589 23.3649 109.589 23.1848V22.8587C109.589 22.7183 109.679 22.5937 109.811 22.5493L110.201 22.4189C110.541 22.305 110.77 22.1388 110.917 21.9345C111.063 21.7301 111.148 21.4587 111.148 21.0978V3.65218C111.148 3.25223 111.067 3.01262 110.959 2.87762L110.95 2.86591C110.84 2.71398 110.622 2.56852 110.228 2.46922L110.225 2.46853L109.808 2.37207C109.661 2.33794 109.557 2.20618 109.557 2.05433V1.72826C109.557 1.5769 109.66 1.44544 109.807 1.41082L115.75 0.00864797C115.844 -0.0134427 115.942 0.00727549 116.019 0.0652201L116.409 0.358699C116.493 0.422251 116.542 0.523002 116.539 0.628881L116.409 5.18945V18.7453C116.43 19.5294 116.441 20.3137 116.441 21.0978C116.441 21.4874 116.518 21.7807 116.65 21.9978C116.768 22.1731 116.982 22.331 117.339 22.4461L117.748 22.541C117.896 22.5751 118 22.7069 118 22.8587V23.1848C118 23.3649 117.855 23.5109 117.675 23.5109H109.914ZM117.253 22.7609C116.842 22.6304 116.549 22.4348 116.376 22.1739C116.203 21.8913 116.117 21.5326 116.117 21.0978C116.117 20.3152 116.106 19.5326 116.084 18.75V5.18479L116.214 0.61957L115.824 0.326092L109.881 1.72826V2.05435L110.304 2.15218C110.737 2.26087 111.04 2.43479 111.213 2.67392C111.386 2.89131 111.473 3.2174 111.473 3.65218V21.0978C111.473 21.9239 111.083 22.4674 110.304 22.7283L109.914 22.8587V23.1848H117.675V22.8587L117.253 22.7609ZM59.0076 4.63044C59.5272 5.08696 60.155 5.31522 60.8911 5.31522C61.6271 5.31522 62.2442 5.08696 62.7421 4.63044C63.24 4.15218 63.489 3.55435 63.489 2.83696C63.489 2.09783 63.24 1.5 62.7421 1.04348C62.2442 0.586961 61.6271 0.358699 60.8911 0.358699C60.155 0.358699 59.5272 0.586961 59.0076 1.04348C58.5096 1.5 58.2607 2.09783 58.2607 2.83696C58.2607 3.55435 58.5096 4.15218 59.0076 4.63044Z" fill="black"/>
<path d="M0 16H8V24H0V16Z" fill="black"/>
<path d="M16 0H24V8H16V0Z" fill="black"/>
<path d="M8 8H16V16H8V8Z" fill="black"/>
</svg>
