<svg width="109" height="24" viewBox="0 0 109 24" fill="none" xmlns="http://www.w3.org/2000/svg">
<path d="M0 17C0 16.4477 0.447715 16 1 16H7.99974V23.9997H0V17Z" fill="black"/>
<path d="M15.9995 1C15.9995 0.447715 16.4472 0 16.9995 0H23.9993V7.99974H15.9995V1Z" fill="black"/>
<path d="M7.99963 8.99805C7.99963 8.44576 8.44735 7.99805 8.99963 7.99805H15.9994V15.9978H7.99963V8.99805Z" fill="black"/>
<path d="M39.08 0V9.72C39.56 8.92 40.2 8.35 41 8.01C41.82 7.65 42.77 7.47 43.85 7.47C44.77 7.47 45.49 7.59 46.01 7.83C46.55 8.05 46.96 8.33 47.24 8.67C47.54 9.03 47.76 9.51 47.9 10.11C48.04 10.71 48.11 11.52 48.11 12.54V20.67C48.11 21.51 48.23 22.08 48.47 22.38C48.73 22.68 49.17 22.83 49.79 22.83V23.46C49.39 23.44 48.78 23.42 47.96 23.4C47.16 23.36 46.37 23.34 45.59 23.34C44.75 23.34 43.93 23.36 43.13 23.4C42.33 23.42 41.73 23.44 41.33 23.46V22.83C41.85 22.83 42.21 22.68 42.41 22.38C42.61 22.08 42.71 21.51 42.71 20.67V10.92C42.71 10.5 42.66 10.15 42.56 9.87C42.46 9.59 42.3 9.38 42.08 9.24C41.88 9.1 41.6 9.03 41.24 9.03C40.68 9.03 40.18 9.23 39.74 9.63C39.3 10.03 39.08 10.55 39.08 11.19V20.67C39.08 21.51 39.18 22.08 39.38 22.38C39.6 22.68 39.96 22.83 40.46 22.83V23.46C40.08 23.44 39.52 23.42 38.78 23.4C38.04 23.36 37.28 23.34 36.5 23.34C35.66 23.34 34.81 23.36 33.95 23.4C33.09 23.42 32.44 23.44 32 23.46V22.83C32.62 22.83 33.05 22.68 33.29 22.38C33.55 22.08 33.68 21.51 33.68 20.67V3.6C33.68 2.7 33.56 2.04 33.32 1.62C33.08 1.18 32.64 0.96 32 0.96V0.330001C32.64 0.390001 33.26 0.420002 33.86 0.420002C34.86 0.420002 35.79 0.390001 36.65 0.330001C37.53 0.250001 38.34 0.140001 39.08 0Z" fill="black"/>
<path d="M57.3521 0C58.3921 0 59.1921 0.220001 59.7521 0.660001C60.3321 1.08 60.6221 1.72 60.6221 2.58C60.6221 3.44 60.3321 4.09 59.7521 4.53C59.1921 4.95 58.3921 5.16 57.3521 5.16C56.3121 5.16 55.5021 4.95 54.9221 4.53C54.3621 4.09 54.0821 3.44 54.0821 2.58C54.0821 1.72 54.3621 1.08 54.9221 0.660001C55.5021 0.220001 56.3121 0 57.3521 0ZM60.2321 7.56V20.67C60.2321 21.51 60.3521 22.08 60.5921 22.38C60.8521 22.68 61.2921 22.83 61.9121 22.83V23.46C61.5121 23.44 60.9121 23.42 60.1121 23.4C59.3121 23.36 58.4921 23.34 57.6521 23.34C56.8121 23.34 55.9621 23.36 55.1021 23.4C54.2421 23.42 53.5921 23.44 53.1521 23.46V22.83C53.7721 22.83 54.2021 22.68 54.4421 22.38C54.7021 22.08 54.8321 21.51 54.8321 20.67V11.16C54.8321 10.26 54.7121 9.6 54.4721 9.18C54.2321 8.74 53.7921 8.52 53.1521 8.52V7.89C53.7921 7.95 54.4121 7.98 55.0121 7.98C56.0121 7.98 56.9421 7.95 57.8021 7.89C58.6821 7.81 59.4921 7.7 60.2321 7.56Z" fill="black"/>
<path d="M80.2787 7.89V8.52C79.8987 8.66 79.5287 8.94 79.1687 9.36C78.8287 9.76 78.4887 10.45 78.1487 11.43L74.0987 23.46C73.6187 23.42 73.1287 23.4 72.6287 23.4C72.1487 23.4 71.6687 23.42 71.1887 23.46L65.9687 10.2C65.6687 9.44 65.3587 8.97 65.0387 8.79C64.7187 8.61 64.4487 8.52 64.2287 8.52V7.89C65.0287 7.95 65.8587 8 66.7187 8.04C67.5787 8.06 68.5287 8.07 69.5687 8.07C70.1887 8.07 70.8387 8.05 71.5187 8.01C72.2187 7.97 72.8687 7.93 73.4687 7.89V8.52C73.1087 8.52 72.7787 8.54 72.4787 8.58C72.1987 8.6 71.9887 8.69 71.8487 8.85C71.7287 8.99 71.7087 9.26 71.7887 9.66L75.1487 19.02L74.7587 19.62L76.4387 14.61C77.1187 12.59 77.2387 11.09 76.7987 10.11C76.3587 9.11 75.6987 8.58 74.8187 8.52V7.89C75.2387 7.93 75.7787 7.96 76.4387 7.98C77.0987 8 77.6087 8.01 77.9687 8.01C78.3287 8.01 78.7487 8 79.2287 7.98C79.7087 7.96 80.0587 7.93 80.2787 7.89Z" fill="black"/>
<path d="M90.718 7.47C92.478 7.47 93.858 7.99 94.858 9.03C95.878 10.05 96.388 11.77 96.388 14.19H86.998L86.938 13.62H92.008C92.028 12.64 91.988 11.74 91.888 10.92C91.788 10.08 91.628 9.41 91.408 8.91C91.188 8.41 90.888 8.16 90.508 8.16C89.968 8.16 89.528 8.59 89.188 9.45C88.848 10.29 88.628 11.74 88.528 13.8L88.648 14.04C88.628 14.24 88.618 14.44 88.618 14.64C88.618 14.84 88.618 15.05 88.618 15.27C88.618 16.67 88.788 17.76 89.128 18.54C89.488 19.32 89.928 19.86 90.448 20.16C90.988 20.46 91.528 20.61 92.068 20.61C92.468 20.61 93.008 20.51 93.688 20.31C94.368 20.09 95.038 19.52 95.698 18.6L96.208 18.78C95.968 19.58 95.578 20.38 95.038 21.18C94.518 21.96 93.838 22.61 92.998 23.13C92.158 23.63 91.138 23.88 89.938 23.88C88.658 23.88 87.488 23.62 86.428 23.1C85.388 22.58 84.558 21.72 83.938 20.52C83.318 19.32 83.008 17.71 83.008 15.69C83.008 13.77 83.348 12.21 84.028 11.01C84.708 9.79 85.628 8.9 86.788 8.34C87.968 7.76 89.278 7.47 90.718 7.47Z" fill="black"/>
<path d="M107.186 0V20.67C107.186 21.51 107.306 22.08 107.546 22.38C107.806 22.68 108.246 22.83 108.866 22.83V23.46C108.466 23.44 107.866 23.42 107.066 23.4C106.266 23.36 105.446 23.34 104.606 23.34C103.766 23.34 102.916 23.36 102.056 23.4C101.196 23.42 100.546 23.44 100.106 23.46V22.83C100.726 22.83 101.156 22.68 101.396 22.38C101.656 22.08 101.786 21.51 101.786 20.67V3.6C101.786 2.7 101.666 2.04 101.426 1.62C101.186 1.18 100.746 0.96 100.106 0.96V0.330001C100.746 0.390001 101.366 0.420002 101.966 0.420002C102.966 0.420002 103.896 0.390001 104.756 0.330001C105.636 0.250001 106.446 0.140001 107.186 0Z" fill="black"/>
</svg>
