<svg width="32" height="32" viewBox="0 0 32 32" fill="none" xmlns="http://www.w3.org/2000/svg">
<path d="M32 16C32 24.8366 24.8366 32 16 32C7.16344 32 0 24.8366 0 16C0 7.16344 7.16344 0 16 0C24.8366 0 32 7.16344 32 16Z" fill="black"/>
<path d="M6 20.334C6 19.7817 6.44772 19.334 7 19.334H12.6667V26.0007H6V20.334Z" fill="white"/>
<path d="M19.3334 7C19.3334 6.44771 19.7811 6 20.3334 6H26V12.6667H19.3334V7Z" fill="white"/>
<path d="M12.6666 13.666C12.6666 13.1137 13.1143 12.666 13.6666 12.666H19.3333V19.3327H12.6666V13.666Z" fill="white"/>
</svg>
